<?xml version="1.0" encoding="UTF-8"?>
<svg id="Layer_1" data-name="Layer 1" xmlns="http://www.w3.org/2000/svg" xmlns:xlink="http://www.w3.org/1999/xlink" viewBox="0 0 1080 1080">
  <defs>
    <style>
      .cls-1 {
        fill: none;
      }

      .cls-2 {
        fill: #4b1148;
      }

      .cls-3 {
        fill: #fbe8fe;
      }

      .cls-4 {
        clip-path: url(#clippath);
      }
    </style>
    <clipPath id="clippath">
      <rect class="cls-1" width="1080" height="1080"/>
    </clipPath>
  </defs>
  <rect class="cls-3" width="1080" height="1080"/>
  <g class="cls-4">
    <path class="cls-2" d="M212.99,778.61c5.77-32.45,2.7-15.32,9.38-54.99,2.88-1.98,10.1-4.51,13.34-4.51,1.8,0,3.43.9,3.43,3.25,0,2.88-2.52,15.69-4.69,27.77-1.62,9.38-3.25,18.93-4.33,25.78,12.8,0,27.04-3.97,37.86-12.98,9.92-8.29,15.51-19.83,15.51-32.81,0-21.46-15.33-34.62-38.94-34.62-14.25,0-28.13,4.69-38.41,13.16-9.92,8.11-16.77,19.83-16.77,34.62,0,10.64,3.61,26.14,15.51,30.83l-1.08,3.43c-15.87,0-29.03-11.18-29.03-30.11s12.08-34.62,27.05-45.07c14.06-9.74,31.01-14.96,47.78-14.96,25.78,0,52.47,12.44,52.47,38.94,0,13.16-6.49,24.52-15.33,33.54-8.11,8.29-18.39,14.42-29.75,18.57,12.62,12.98,23.26,25.24,33.18,37.68,7.57-7.57,14.42-21.82,18.57-45.44l5.05.54c-7.21,43.81-23.98,58.42-38.59,58.78-11.72-16.23-24.16-32.27-37.5-47.96l-8.47.72c-1.98,14.42-3.25,27.59-3.61,39.13-3.61,2.52-11,5.59-14.6,5.59s-4.33-2.52-4.33-6.31c0-6.67,3.07-24.34,6.31-42.55"/>
    <path class="cls-2" d="M310.53,754.63c3.61-2.34,10.28-5.23,13.88-5.23,2.71,0,3.97,1.62,3.97,4.87,0,2.7-1.26,9.19-2.52,16.59-1.62,9.38-3.43,20.56-3.43,29.75s2.16,18.21,7.21,18.21c5.95,0,14.42-12.26,20.92-48.14l5.05.54c-8.11,45.08-19.29,55.89-30.83,55.89-10.28,0-19.11-8.47-19.11-27.04,0-12.8,3.43-30.11,4.87-45.44M316.3,723.8c0-5.95,4.51-10.64,10.46-10.64s10.64,4.69,10.64,10.64-4.69,10.46-10.64,10.46-10.46-4.69-10.46-10.46"/>
    <path class="cls-2" d="M347.67,802.41c0-16.23,3.43-32.27,4.51-47.78,3.61-2.35,10.28-5.23,13.88-5.23,2.71,0,3.97,1.62,3.97,4.87s-1.44,11.18-3.61,22.54c-1.26,6.85-2.16,12.8-2.52,17.13h.54c5.77-26.68,18.03-43.27,32.46-45.44,7.57,1.8,13.16,5.77,17.31,11-2.52,11.72-7.03,26.87-7.21,40.57h.54c7.21-33.18,19.83-49.4,34.26-51.57,8.11,1.98,13.7,5.77,17.49,11-2.71,11.72-6.49,24.7-6.49,39.13,0,11.54,2.52,20.19,7.39,20.19,5.77,0,14.24-12.26,20.73-48.14l5.05.54c-7.93,45.26-19.47,55.9-30.65,55.9-10.1,0-19.65-8.47-19.65-28.49,0-14.06,4.69-29.93,4.69-34.62,0-2.34-1.08-4.33-3.97-4.33-2.16,0-4.33,1.26-6.49,3.24-4.51,4.33-9.01,12.62-12.26,21.82-3.97,11.36-6.31,25.42-6.31,37.5-3.79,3.07-7.03,4.51-9.56,4.51-7.57,0-10.82-13.88-10.82-26.68,0-15.15,4.51-31.37,4.51-36.06,0-2.16-1.08-4.33-3.97-4.33-2.16,0-4.33,1.26-6.49,3.24-4.51,4.33-9.01,12.62-12.26,21.82-4.33,12.26-6.67,27.23-6.31,38.41-4.33,2.34-8.48,3.61-10.46,3.61-7.39,0-8.29-16.05-8.29-24.34"/>
    <path class="cls-2" d="M470.81,798.63c0-12.98,5.23-25.79,13.34-34.8,7.75-8.65,18.93-14.6,31.37-14.6,7.57,0,14.79,2.16,21.64,5.95-1.98,11.36-5.05,30.65-5.05,43.27,0,11.18,2.34,20.37,7.39,20.37,5.95,0,14.42-12.98,20.74-48.14l5.05.54c-7.93,45.07-19.29,56.07-30.47,56.07-9.56,0-18.57-7.93-19.83-25.06h-.36c-5.59,16.95-13.52,25.06-23.08,25.06-10.82,0-20.73-10.64-20.73-28.67M510.66,797.18c3.25-10.1,6.49-24.7,8.47-35.34-3.43-2.34-7.57-3.61-11.54-3.61-4.69,0-9.38,1.62-12.98,4.87-4.15,7.75-7.03,19.83-7.03,31.37,0,12.44,3.43,23.62,9.2,23.62,4.33,0,9.2-6.31,13.88-20.92"/>
    <path class="cls-2" d="M582.78,784.74c-4.15,12.08-6.49,27.22-6.31,38.4-4.33,2.34-8.83,3.61-10.82,3.61-7.39,0-8.29-16.05-8.29-24.52,0-15.86,3.43-32.27,4.51-47.6,3.61-2.34,10.28-5.23,13.88-5.23,2.71,0,3.97,1.62,3.97,4.87,0,4.51-2.34,14.6-4.15,26.32-.72,4.87-1.26,9.74-1.62,13.52h.54c5.59-26.69,18.21-43.45,32.64-45.62,7.03,1.8,12.98,5.41,17.31,11-2.52,11.72-6.31,24.52-6.31,38.94,0,12.08,2.7,20.55,8.29,20.55,5.05,0,11.72-7.03,17.31-25.24l4.87,1.44c-8.12,26.87-18.93,32.09-27.05,32.09-10.1,0-20.74-7.75-20.74-28.49,0-13.16,4.33-30.11,4.33-34.98,0-1.98-.72-4.15-3.61-4.15-2.17,0-4.33,1.26-6.49,3.24-4.69,4.33-9.02,12.44-12.26,21.82"/>
    <path class="cls-2" d="M655.08,770.68l1.98,2.89c-4.87,3.97-6.85,9.74-6.85,15.87,0,15.51,13.34,29.39,30.47,29.39,13.88,0,27.05-9.02,27.05-23.98s-13.16-23.8-27.41-33.54c-13.34-9.2-26.5-18.21-26.5-35.7,0-23.26,23.62-38.22,45.08-38.22,14.42,0,31.01,6.85,31.01,22.18,0,8.65-5.23,15.33-12.62,18.75l-2.52-2.52c2.16-2.16,3.07-4.87,3.07-8.48,0-12.26-10.64-21.46-24.7-21.46-11.9,0-24.16,6.67-24.16,20.38s12.08,22.54,25.24,31.55c13.16,9.02,27.58,18.57,27.58,37.86,0,24.7-23.62,42.37-47.42,42.37-18.39,0-36.78-10.46-36.78-30.11,0-11.54,6.49-22.9,17.49-27.22"/>
    <path class="cls-2" d="M729.9,798.63c0-12.98,5.23-25.79,13.34-34.8,7.76-8.65,18.93-14.6,31.37-14.6,7.57,0,14.79,2.16,21.64,5.95-1.98,11.36-5.05,30.65-5.05,43.27,0,11.18,2.34,20.37,7.39,20.37,5.95,0,14.42-12.98,20.74-48.14l5.05.54c-7.93,45.07-19.29,56.07-30.47,56.07-9.56,0-18.57-7.93-19.83-25.06h-.36c-5.59,16.95-13.52,25.06-23.08,25.06-10.82,0-20.74-10.64-20.74-28.67M769.75,797.18c3.25-10.1,6.49-24.7,8.47-35.34-3.43-2.34-7.57-3.61-11.54-3.61-4.69,0-9.38,1.62-12.98,4.87-4.15,7.75-7.03,19.83-7.03,31.37,0,12.44,3.43,23.62,9.2,23.62,4.33,0,9.2-6.31,13.88-20.92"/>
    <path class="cls-2" d="M841.87,784.74c-4.15,12.08-6.49,27.22-6.31,38.4-4.33,2.34-8.84,3.61-10.82,3.61-7.39,0-8.29-16.05-8.29-24.52,0-15.86,3.42-32.27,4.51-47.6,3.61-2.34,10.28-5.23,13.88-5.23,2.71,0,3.97,1.62,3.97,4.87,0,4.51-2.34,14.6-4.15,26.32-.72,4.87-1.26,9.74-1.62,13.52h.54c5.59-26.69,18.21-43.45,32.63-45.62,7.03,1.8,12.98,5.41,17.31,11-2.53,11.72-6.31,24.52-6.31,38.94,0,12.08,2.7,20.55,8.29,20.55,5.05,0,11.72-7.03,17.31-25.24l4.87,1.44c-8.11,26.87-18.93,32.09-27.04,32.09-10.1,0-20.73-7.75-20.73-28.49,0-13.16,4.33-30.11,4.33-34.98,0-1.98-.72-4.15-3.61-4.15-2.16,0-4.33,1.26-6.49,3.24-4.69,4.33-9.01,12.44-12.26,21.82"/>
    <path class="cls-2" d="M632.71,643.82h-210.73c-60.02,0-108.68-48.66-108.68-108.68v-180.45c0-60.02,48.66-108.68,108.68-108.68h210.73c60.02,0,108.68,48.66,108.68,108.68v180.45c0,60.02-48.66,108.68-108.68,108.68"/>
    <path class="cls-3" d="M395.59,586.67c-67.27-56.41-78.79-160.59-29.92-232.85,48.42-74.55,147.87-103.94,228.29-65.61,21.89,10.39,41.53,25.12,56.82,43.27-18.13-15.25-38.46-27.35-60.24-35-76.25-27.91-164.73-.29-209.92,67.34-46.68,67.43-38.77,161.32,14.98,222.84"/>
    <path class="cls-3" d="M659.1,303.15c67.27,56.41,78.79,160.59,29.92,232.85-48.42,74.54-147.86,103.94-228.29,65.61-21.89-10.39-41.53-25.12-56.82-43.27,18.14,15.25,38.46,27.35,60.24,35,76.25,27.91,164.73.29,209.92-67.34,46.68-67.43,38.77-161.32-14.98-222.84"/>
    <path class="cls-3" d="M438.14,469.7c6.84-38.46,3.2-18.16,11.11-65.18,3.42-2.35,11.97-5.34,15.82-5.34,2.14,0,4.06,1.07,4.06,3.85,0,3.42-2.99,18.59-5.56,32.91l-5.13,30.56c15.17,0,32.05-4.7,44.88-15.39,11.75-9.83,18.38-23.51,18.38-38.89,0-25.43-18.16-41.03-46.16-41.03-16.88,0-33.33,5.56-45.52,15.6-11.75,9.62-19.87,23.51-19.87,41.03,0,12.61,4.27,30.98,18.38,36.54l-1.28,4.06c-18.81,0-34.4-13.25-34.4-35.69s14.32-41.03,32.05-53.42c16.67-11.54,36.76-17.74,56.63-17.74,30.56,0,62.19,14.74,62.19,46.16,0,15.6-7.69,29.06-18.16,39.75-9.62,9.83-21.8,17.1-35.26,22.01,14.96,15.39,27.57,29.92,39.32,44.66,4.49-4.49,8.76-10.9,12.39-19.66l6.2,2.35c-9.83,24.79-23.72,33.55-36.33,33.76-13.89-19.23-28.64-38.25-44.45-56.84l-10.04.85c-2.35,17.1-3.85,32.7-4.27,46.37-4.27,2.99-13.04,6.62-17.31,6.62s-5.13-2.99-5.13-7.48c0-7.91,3.63-28.85,7.48-50.43"/>
    <path class="cls-3" d="M562.09,460.3l2.35,3.42c-5.77,4.7-8.12,11.54-8.12,18.81,0,18.38,15.81,34.83,36.11,34.83,16.46,0,32.05-10.69,32.05-28.42s-15.6-28.21-32.48-39.75c-15.81-10.9-31.41-21.58-31.41-42.31,0-27.57,27.99-45.3,53.42-45.3,17.1,0,36.76,8.12,36.76,26.28,0,10.26-6.2,18.17-14.96,22.23l-2.99-2.99c2.56-2.56,3.63-5.77,3.63-10.04,0-14.53-12.61-25.43-29.28-25.43-14.1,0-28.63,7.91-28.63,24.15s14.32,26.71,29.92,37.4c15.6,10.68,32.7,22.01,32.7,44.88,0,29.28-27.99,50.22-56.2,50.22-21.8,0-43.59-12.39-43.59-35.69,0-13.68,7.69-27.14,20.73-32.27"/>
  </g>
</svg>